{
	"asset":{
		"generator":"Khronos glTF Blender I/O v4.2.70",
		"version":"2.0"
	},
	"scene":0,
	"scenes":[
		{
			"name":"Scene",
			"nodes":[
				0,
				1,
				2
			]
		}
	],
	"nodes":[
		{
			"mesh":0,
			"name":"Gem_0",
			"rotation":[
				0.70710688829422,
				0,
				0,
				0.7071066498756409
			]
		},
		{
			"mesh":1,
			"name":"Ring",
			"rotation":[
				0.70710688829422,
				0,
				0,
				0.7071066498756409
			]
		},
		{
			"mesh":2,
			"name":"Gem_1",
			"rotation":[
				0.70710688829422,
				0,
				0,
				0.7071066498756409
			]
		}
	],
	"materials":[
		{
			"doubleSided":true,
			"name":"\u6750\u8d28.001",
			"pbrMetallicRoughness":{
				"baseColorTexture":{
					"index":0
				},
				"metallicFactor":0,
				"roughnessFactor":0.5
			}
		},
		{
			"doubleSided":true,
			"name":"\u6750\u8d28.002",
			"pbrMetallicRoughness":{
				"baseColorTexture":{
					"index":1
				},
				"roughnessFactor":0
			}
		},
		{
			"doubleSided":true,
			"name":"\u6750\u8d28.003",
			"pbrMetallicRoughness":{
				"baseColorTexture":{
					"index":2
				},
				"metallicFactor":0,
				"roughnessFactor":0.5
			}
		}
	],
	"meshes":[
		{
			"name":"Gem_0",
			"primitives":[
				{
					"attributes":{
						"POSITION":0,
						"NORMAL":1,
						"TEXCOORD_0":2
					},
					"indices":3,
					"material":0
				}
			]
		},
		{
			"name":"Ring",
			"primitives":[
				{
					"attributes":{
						"POSITION":4,
						"NORMAL":5,
						"TEXCOORD_0":6
					},
					"indices":7,
					"material":1
				}
			]
		},
		{
			"name":"Gem_1",
			"primitives":[
				{
					"attributes":{
						"POSITION":8,
						"NORMAL":9,
						"TEXCOORD_0":10
					},
					"indices":3,
					"material":2
				}
			]
		}
	],
	"textures":[
		{
			"sampler":0,
			"source":0
		},
		{
			"sampler":0,
			"source":1
		},
		{
			"sampler":0,
			"source":0
		}
	],
	"images":[
		{
			"mimeType":"image/png",
			"name":"c05b49ec-5904-4748-bca2-71f632c5eb39",
			"uri":"c05b49ec-5904-4748-bca2-71f632c5eb39.png"
		},
		{
			"mimeType":"image/jpeg",
			"name":"img_v3_02ga_816b28b4-eab5-4bc4-a608-8db7baeca8fg",
			"uri":"img_v3_02ga_816b28b4-eab5-4bc4-a608-8db7baeca8fg.jpg"
		}
	],
	"accessors":[
		{
			"bufferView":0,
			"componentType":5126,
			"count":897,
			"max":[
				0.7502061128616333,
				0.5919256210327148,
				0.7500261664390564
			],
			"min":[
				-0.7498461604118347,
				-0.3081057369709015,
				-0.7500261664390564
			],
			"type":"VEC3"
		},
		{
			"bufferView":1,
			"componentType":5126,
			"count":897,
			"type":"VEC3"
		},
		{
			"bufferView":2,
			"componentType":5126,
			"count":897,
			"type":"VEC2"
		},
		{
			"bufferView":3,
			"componentType":5123,
			"count":1296,
			"type":"SCALAR"
		},
		{
			"bufferView":4,
			"componentType":5126,
			"count":19253,
			"max":[
				1.2548999786376953,
				0.5757836103439331,
				1.2548999786376953
			],
			"min":[
				-1.2548999786376953,
				-0.9895164370536804,
				-1.2548999786376953
			],
			"type":"VEC3"
		},
		{
			"bufferView":5,
			"componentType":5126,
			"count":19253,
			"type":"VEC3"
		},
		{
			"bufferView":6,
			"componentType":5126,
			"count":19253,
			"type":"VEC2"
		},
		{
			"bufferView":7,
			"componentType":5123,
			"count":66468,
			"type":"SCALAR"
		},
		{
			"bufferView":8,
			"componentType":5126,
			"count":897,
			"max":[
				0.7502061128616333,
				0.5919256210327148,
				0.7500261664390564
			],
			"min":[
				-0.7498461604118347,
				-0.3081057369709015,
				-0.7500261664390564
			],
			"type":"VEC3"
		},
		{
			"bufferView":9,
			"componentType":5126,
			"count":897,
			"type":"VEC3"
		},
		{
			"bufferView":10,
			"componentType":5126,
			"count":897,
			"type":"VEC2"
		}
	],
	"bufferViews":[
		{
			"buffer":0,
			"byteLength":10764,
			"byteOffset":0,
			"target":34962
		},
		{
			"buffer":0,
			"byteLength":10764,
			"byteOffset":10764,
			"target":34962
		},
		{
			"buffer":0,
			"byteLength":7176,
			"byteOffset":21528,
			"target":34962
		},
		{
			"buffer":0,
			"byteLength":2592,
			"byteOffset":28704,
			"target":34963
		},
		{
			"buffer":0,
			"byteLength":231036,
			"byteOffset":31296,
			"target":34962
		},
		{
			"buffer":0,
			"byteLength":231036,
			"byteOffset":262332,
			"target":34962
		},
		{
			"buffer":0,
			"byteLength":154024,
			"byteOffset":493368,
			"target":34962
		},
		{
			"buffer":0,
			"byteLength":132936,
			"byteOffset":647392,
			"target":34963
		},
		{
			"buffer":0,
			"byteLength":10764,
			"byteOffset":780328,
			"target":34962
		},
		{
			"buffer":0,
			"byteLength":10764,
			"byteOffset":791092,
			"target":34962
		},
		{
			"buffer":0,
			"byteLength":7176,
			"byteOffset":801856,
			"target":34962
		}
	],
	"samplers":[
		{
			"magFilter":9729,
			"minFilter":9987
		}
	],
	"buffers":[
		{
			"byteLength":809032,
			"uri":"demo2.bin"
		}
	]
}
