{
	"asset":{
		"generator":"Khronos glTF Blender I/O v4.2.70",
		"version":"2.0"
	},
	"extensionsUsed":[
		"KHR_materials_specular"
	],
	"scene":0,
	"scenes":[
		{
			"name":"Scene",
			"nodes":[
				0
			]
		}
	],
	"nodes":[
		{
			"mesh":0,
			"name":"baoxiang",
			"rotation":[
				0.70710688829422,
				0,
				0,
				0.7071066498756409
			]
		}
	],
	"materials":[
		{
			"doubleSided":true,
			"extensions":{
				"KHR_materials_specular":{
					"specularFactor":0
				}
			},
			"name":"diffuse_Black",
			"pbrMetallicRoughness":{
				"baseColorTexture":{
					"index":0
				},
				"metallicFactor":0
			}
		},
		{
			"doubleSided":true,
			"extensions":{
				"KHR_materials_specular":{
					"specularFactor":0
				}
			},
			"name":"Material_1",
			"pbrMetallicRoughness":{
				"baseColorTexture":{
					"index":1
				},
				"metallicFactor":0
			}
		},
		{
			"doubleSided":true,
			"extensions":{
				"KHR_materials_specular":{
					"specularFactor":0
				}
			},
			"name":"Material_2",
			"pbrMetallicRoughness":{
				"baseColorTexture":{
					"index":2
				},
				"metallicFactor":0
			}
		},
		{
			"doubleSided":true,
			"extensions":{
				"KHR_materials_specular":{
					"specularFactor":0
				}
			},
			"name":"Material_3",
			"pbrMetallicRoughness":{
				"baseColorTexture":{
					"index":3
				},
				"metallicFactor":0
			}
		}
	],
	"meshes":[
		{
			"name":"baoxiang",
			"primitives":[
				{
					"attributes":{
						"POSITION":0,
						"NORMAL":1,
						"TEXCOORD_0":2
					},
					"indices":3,
					"material":0
				},
				{
					"attributes":{
						"POSITION":4,
						"NORMAL":5,
						"TEXCOORD_0":6
					},
					"indices":7,
					"material":1
				},
				{
					"attributes":{
						"POSITION":8,
						"NORMAL":9,
						"TEXCOORD_0":10
					},
					"indices":11,
					"material":2
				},
				{
					"attributes":{
						"POSITION":12,
						"NORMAL":13,
						"TEXCOORD_0":14
					},
					"indices":15,
					"material":3
				}
			]
		}
	],
	"textures":[
		{
			"sampler":0,
			"source":0
		},
		{
			"sampler":0,
			"source":1
		},
		{
			"sampler":0,
			"source":1
		},
		{
			"sampler":0,
			"source":1
		}
	],
	"images":[
		{
			"mimeType":"image/png",
			"name":"demo1_mtl_ring",
			"uri":"demo1_mtl_ring.png"
		},
		{
			"mimeType":"image/png",
			"name":"image1",
			"uri":"image1.png"
		}
	],
	"accessors":[
		{
			"bufferView":0,
			"componentType":5126,
			"count":75733,
			"max":[
				9.92389965057373,
				1.2548999786376953,
				9.764599800109863
			],
			"min":[
				-9.92389965057373,
				-1.2548999786376953,
				-10.690400123596191
			],
			"type":"VEC3"
		},
		{
			"bufferView":1,
			"componentType":5126,
			"count":75733,
			"type":"VEC3"
		},
		{
			"bufferView":2,
			"componentType":5126,
			"count":75733,
			"type":"VEC2"
		},
		{
			"bufferView":3,
			"componentType":5125,
			"count":251913,
			"type":"SCALAR"
		},
		{
			"bufferView":4,
			"componentType":5126,
			"count":485,
			"max":[
				6.79294490814209,
				0.7569842338562012,
				-7.84312629699707
			],
			"min":[
				5.485500335693359,
				-0.7569842338562012,
				-8.95296859741211
			],
			"type":"VEC3"
		},
		{
			"bufferView":5,
			"componentType":5126,
			"count":485,
			"type":"VEC3"
		},
		{
			"bufferView":6,
			"componentType":5126,
			"count":485,
			"type":"VEC2"
		},
		{
			"bufferView":7,
			"componentType":5123,
			"count":828,
			"type":"SCALAR"
		},
		{
			"bufferView":8,
			"componentType":5126,
			"count":467,
			"max":[
				0.7569842338562012,
				0.7569842338562012,
				-9.69604778289795
			],
			"min":[
				-0.7569842338562012,
				-0.7569842338562012,
				-10.750402450561523
			],
			"type":"VEC3"
		},
		{
			"bufferView":9,
			"componentType":5126,
			"count":467,
			"type":"VEC3"
		},
		{
			"bufferView":10,
			"componentType":5126,
			"count":467,
			"type":"VEC2"
		},
		{
			"bufferView":11,
			"componentType":5123,
			"count":828,
			"type":"SCALAR"
		},
		{
			"bufferView":12,
			"componentType":5126,
			"count":481,
			"max":[
				-5.485500335693359,
				0.7569842338562012,
				-7.84312629699707
			],
			"min":[
				-6.79294490814209,
				-0.7569842338562012,
				-8.95296859741211
			],
			"type":"VEC3"
		},
		{
			"bufferView":13,
			"componentType":5126,
			"count":481,
			"type":"VEC3"
		},
		{
			"bufferView":14,
			"componentType":5126,
			"count":481,
			"type":"VEC2"
		},
		{
			"bufferView":15,
			"componentType":5123,
			"count":828,
			"type":"SCALAR"
		}
	],
	"bufferViews":[
		{
			"buffer":0,
			"byteLength":908796,
			"byteOffset":0,
			"target":34962
		},
		{
			"buffer":0,
			"byteLength":908796,
			"byteOffset":908796,
			"target":34962
		},
		{
			"buffer":0,
			"byteLength":605864,
			"byteOffset":1817592,
			"target":34962
		},
		{
			"buffer":0,
			"byteLength":1007652,
			"byteOffset":2423456,
			"target":34963
		},
		{
			"buffer":0,
			"byteLength":5820,
			"byteOffset":3431108,
			"target":34962
		},
		{
			"buffer":0,
			"byteLength":5820,
			"byteOffset":3436928,
			"target":34962
		},
		{
			"buffer":0,
			"byteLength":3880,
			"byteOffset":3442748,
			"target":34962
		},
		{
			"buffer":0,
			"byteLength":1656,
			"byteOffset":3446628,
			"target":34963
		},
		{
			"buffer":0,
			"byteLength":5604,
			"byteOffset":3448284,
			"target":34962
		},
		{
			"buffer":0,
			"byteLength":5604,
			"byteOffset":3453888,
			"target":34962
		},
		{
			"buffer":0,
			"byteLength":3736,
			"byteOffset":3459492,
			"target":34962
		},
		{
			"buffer":0,
			"byteLength":1656,
			"byteOffset":3463228,
			"target":34963
		},
		{
			"buffer":0,
			"byteLength":5772,
			"byteOffset":3464884,
			"target":34962
		},
		{
			"buffer":0,
			"byteLength":5772,
			"byteOffset":3470656,
			"target":34962
		},
		{
			"buffer":0,
			"byteLength":3848,
			"byteOffset":3476428,
			"target":34962
		},
		{
			"buffer":0,
			"byteLength":1656,
			"byteOffset":3480276,
			"target":34963
		}
	],
	"samplers":[
		{
			"magFilter":9729,
			"minFilter":9987
		}
	],
	"buffers":[
		{
			"byteLength":3481932,
			"uri":"demo5.bin"
		}
	]
}
