{
	"asset":{
		"generator":"Khronos glTF Blender I/O v4.2.70",
		"version":"2.0"
	},
	"extensionsUsed":[
		"KHR_materials_specular"
	],
	"scene":0,
	"scenes":[
		{
			"name":"Scene",
			"nodes":[
				0
			]
		}
	],
	"nodes":[
		{
			"mesh":0,
			"name":"dingxiang",
			"rotation":[
				0.70710688829422,
				0,
				0,
				0.7071066498756409
			]
		}
	],
	"materials":[
		{
			"doubleSided":true,
			"extensions":{
				"KHR_materials_specular":{
					"specularFactor":0
				}
			},
			"name":"diffuse_Black",
			"pbrMetallicRoughness":{
				"baseColorTexture":{
					"index":0
				},
				"metallicFactor":0
			}
		},
		{
			"doubleSided":true,
			"extensions":{
				"KHR_materials_specular":{
					"specularFactor":0
				}
			},
			"name":"Material_1",
			"pbrMetallicRoughness":{
				"baseColorTexture":{
					"index":1
				},
				"metallicFactor":0
			}
		},
		{
			"doubleSided":true,
			"extensions":{
				"KHR_materials_specular":{
					"specularFactor":0
				}
			},
			"name":"Material_2",
			"pbrMetallicRoughness":{
				"baseColorTexture":{
					"index":2
				},
				"metallicFactor":0
			}
		},
		{
			"doubleSided":true,
			"extensions":{
				"KHR_materials_specular":{
					"specularFactor":0
				}
			},
			"name":"Material_3",
			"pbrMetallicRoughness":{
				"baseColorTexture":{
					"index":3
				},
				"metallicFactor":0
			}
		},
		{
			"doubleSided":true,
			"extensions":{
				"KHR_materials_specular":{
					"specularFactor":0
				}
			},
			"name":"Material_4",
			"pbrMetallicRoughness":{
				"baseColorTexture":{
					"index":4
				},
				"metallicFactor":0
			}
		},
		{
			"doubleSided":true,
			"extensions":{
				"KHR_materials_specular":{
					"specularFactor":0
				}
			},
			"name":"Material_5",
			"pbrMetallicRoughness":{
				"baseColorTexture":{
					"index":5
				},
				"metallicFactor":0
			}
		},
		{
			"doubleSided":true,
			"extensions":{
				"KHR_materials_specular":{
					"specularFactor":0
				}
			},
			"name":"Material_6",
			"pbrMetallicRoughness":{
				"baseColorTexture":{
					"index":6
				},
				"metallicFactor":0
			}
		},
		{
			"doubleSided":true,
			"extensions":{
				"KHR_materials_specular":{
					"specularFactor":0
				}
			},
			"name":"Material_7",
			"pbrMetallicRoughness":{
				"baseColorTexture":{
					"index":7
				},
				"metallicFactor":0
			}
		},
		{
			"doubleSided":true,
			"extensions":{
				"KHR_materials_specular":{
					"specularFactor":0
				}
			},
			"name":"Material_8",
			"pbrMetallicRoughness":{
				"baseColorTexture":{
					"index":8
				},
				"metallicFactor":0
			}
		},
		{
			"doubleSided":true,
			"extensions":{
				"KHR_materials_specular":{
					"specularFactor":0
				}
			},
			"name":"Material_9",
			"pbrMetallicRoughness":{
				"baseColorTexture":{
					"index":9
				},
				"metallicFactor":0
			}
		},
		{
			"doubleSided":true,
			"extensions":{
				"KHR_materials_specular":{
					"specularFactor":0
				}
			},
			"name":"Material_10",
			"pbrMetallicRoughness":{
				"baseColorTexture":{
					"index":10
				},
				"metallicFactor":0
			}
		},
		{
			"doubleSided":true,
			"extensions":{
				"KHR_materials_specular":{
					"specularFactor":0
				}
			},
			"name":"Material_11",
			"pbrMetallicRoughness":{
				"baseColorTexture":{
					"index":11
				},
				"metallicFactor":0
			}
		},
		{
			"doubleSided":true,
			"extensions":{
				"KHR_materials_specular":{
					"specularFactor":0
				}
			},
			"name":"Material_12",
			"pbrMetallicRoughness":{
				"baseColorTexture":{
					"index":12
				},
				"metallicFactor":0
			}
		},
		{
			"doubleSided":true,
			"extensions":{
				"KHR_materials_specular":{
					"specularFactor":0
				}
			},
			"name":"Material_13",
			"pbrMetallicRoughness":{
				"baseColorTexture":{
					"index":13
				},
				"metallicFactor":0
			}
		},
		{
			"doubleSided":true,
			"extensions":{
				"KHR_materials_specular":{
					"specularFactor":0
				}
			},
			"name":"Material_14",
			"pbrMetallicRoughness":{
				"baseColorTexture":{
					"index":14
				},
				"metallicFactor":0
			}
		},
		{
			"doubleSided":true,
			"extensions":{
				"KHR_materials_specular":{
					"specularFactor":0
				}
			},
			"name":"Material_15",
			"pbrMetallicRoughness":{
				"baseColorTexture":{
					"index":15
				},
				"metallicFactor":0
			}
		}
	],
	"meshes":[
		{
			"name":"dingxiang",
			"primitives":[
				{
					"attributes":{
						"POSITION":0,
						"NORMAL":1,
						"TEXCOORD_0":2
					},
					"indices":3,
					"material":0
				},
				{
					"attributes":{
						"POSITION":4,
						"NORMAL":5,
						"TEXCOORD_0":6
					},
					"indices":7,
					"material":1
				},
				{
					"attributes":{
						"POSITION":8,
						"NORMAL":9,
						"TEXCOORD_0":10
					},
					"indices":11,
					"material":2
				},
				{
					"attributes":{
						"POSITION":12,
						"NORMAL":13,
						"TEXCOORD_0":14
					},
					"indices":15,
					"material":3
				},
				{
					"attributes":{
						"POSITION":16,
						"NORMAL":17,
						"TEXCOORD_0":18
					},
					"indices":19,
					"material":4
				},
				{
					"attributes":{
						"POSITION":20,
						"NORMAL":21,
						"TEXCOORD_0":22
					},
					"indices":23,
					"material":5
				},
				{
					"attributes":{
						"POSITION":24,
						"NORMAL":25,
						"TEXCOORD_0":26
					},
					"indices":27,
					"material":6
				},
				{
					"attributes":{
						"POSITION":28,
						"NORMAL":29,
						"TEXCOORD_0":30
					},
					"indices":31,
					"material":7
				},
				{
					"attributes":{
						"POSITION":32,
						"NORMAL":33,
						"TEXCOORD_0":34
					},
					"indices":35,
					"material":8
				},
				{
					"attributes":{
						"POSITION":36,
						"NORMAL":37,
						"TEXCOORD_0":38
					},
					"indices":39,
					"material":9
				},
				{
					"attributes":{
						"POSITION":40,
						"NORMAL":41,
						"TEXCOORD_0":42
					},
					"indices":43,
					"material":10
				},
				{
					"attributes":{
						"POSITION":44,
						"NORMAL":45,
						"TEXCOORD_0":46
					},
					"indices":47,
					"material":11
				},
				{
					"attributes":{
						"POSITION":48,
						"NORMAL":49,
						"TEXCOORD_0":50
					},
					"indices":51,
					"material":12
				},
				{
					"attributes":{
						"POSITION":52,
						"NORMAL":53,
						"TEXCOORD_0":54
					},
					"indices":55,
					"material":13
				},
				{
					"attributes":{
						"POSITION":56,
						"NORMAL":57,
						"TEXCOORD_0":58
					},
					"indices":59,
					"material":14
				},
				{
					"attributes":{
						"POSITION":60,
						"NORMAL":61,
						"TEXCOORD_0":62
					},
					"indices":63,
					"material":15
				}
			]
		}
	],
	"textures":[
		{
			"sampler":0,
			"source":0
		},
		{
			"sampler":0,
			"source":1
		},
		{
			"sampler":0,
			"source":1
		},
		{
			"sampler":0,
			"source":1
		},
		{
			"sampler":0,
			"source":1
		},
		{
			"sampler":0,
			"source":1
		},
		{
			"sampler":0,
			"source":1
		},
		{
			"sampler":0,
			"source":1
		},
		{
			"sampler":0,
			"source":1
		},
		{
			"sampler":0,
			"source":1
		},
		{
			"sampler":0,
			"source":1
		},
		{
			"sampler":0,
			"source":1
		},
		{
			"sampler":0,
			"source":1
		},
		{
			"sampler":0,
			"source":1
		},
		{
			"sampler":0,
			"source":1
		},
		{
			"sampler":0,
			"source":1
		}
	],
	"images":[
		{
			"mimeType":"image/png",
			"name":"metal_albedo",
			"uri":"metal_albedo.png"
		},
		{
			"mimeType":"image/png",
			"name":"gem_albedo",
			"uri":"gem_albedo.png"
		}
	],
	"accessors":[
		{
			"bufferView":0,
			"componentType":5126,
			"count":895259,
			"max":[
				6.164385795593262,
				2.9944000244140625,
				5.724698543548584
			],
			"min":[
				-6.161766052246094,
				-2.3043999671936035,
				-12.439399719238281
			],
			"type":"VEC3"
		},
		{
			"bufferView":1,
			"componentType":5126,
			"count":895259,
			"type":"VEC3"
		},
		{
			"bufferView":2,
			"componentType":5126,
			"count":895259,
			"type":"VEC2"
		},
		{
			"bufferView":3,
			"componentType":5125,
			"count":2783667,
			"type":"SCALAR"
		},
		{
			"bufferView":4,
			"componentType":5126,
			"count":452,
			"max":[
				4.876689434051514,
				1.2687199115753174,
				-2.0417072772979736
			],
			"min":[
				3.3627207279205322,
				0.21436521410942078,
				-3.555675745010376
			],
			"type":"VEC3"
		},
		{
			"bufferView":5,
			"componentType":5126,
			"count":452,
			"type":"VEC3"
		},
		{
			"bufferView":6,
			"componentType":5126,
			"count":452,
			"type":"VEC2"
		},
		{
			"bufferView":7,
			"componentType":5123,
			"count":828,
			"type":"SCALAR"
		},
		{
			"bufferView":8,
			"componentType":5126,
			"count":448,
			"max":[
				5.3393049240112305,
				1.2687199115753174,
				1.299203634262085
			],
			"min":[
				3.825336456298828,
				0.21436521410942078,
				-0.21476489305496216
			],
			"type":"VEC3"
		},
		{
			"bufferView":9,
			"componentType":5126,
			"count":448,
			"type":"VEC3"
		},
		{
			"bufferView":10,
			"componentType":5126,
			"count":448,
			"type":"VEC2"
		},
		{
			"bufferView":11,
			"componentType":5123,
			"count":828,
			"type":"SCALAR"
		},
		{
			"bufferView":12,
			"componentType":5126,
			"count":451,
			"max":[
				5.332355976104736,
				1.2687199115753174,
				-0.3944240212440491
			],
			"min":[
				3.818387269973755,
				0.21436521410942078,
				-1.9083925485610962
			],
			"type":"VEC3"
		},
		{
			"bufferView":13,
			"componentType":5126,
			"count":451,
			"type":"VEC3"
		},
		{
			"bufferView":14,
			"componentType":5126,
			"count":451,
			"type":"VEC2"
		},
		{
			"bufferView":15,
			"componentType":5123,
			"count":828,
			"type":"SCALAR"
		},
		{
			"bufferView":16,
			"componentType":5126,
			"count":447,
			"max":[
				-3.3627207279205322,
				1.2687199115753174,
				-2.0417072772979736
			],
			"min":[
				-4.876689434051514,
				0.21436521410942078,
				-3.555675745010376
			],
			"type":"VEC3"
		},
		{
			"bufferView":17,
			"componentType":5126,
			"count":447,
			"type":"VEC3"
		},
		{
			"bufferView":18,
			"componentType":5126,
			"count":447,
			"type":"VEC2"
		},
		{
			"bufferView":19,
			"componentType":5123,
			"count":828,
			"type":"SCALAR"
		},
		{
			"bufferView":20,
			"componentType":5126,
			"count":447,
			"max":[
				2.445667266845703,
				1.2687199115753174,
				-4.318145275115967
			],
			"min":[
				0.9316988587379456,
				0.21436521410942078,
				-5.832113742828369
			],
			"type":"VEC3"
		},
		{
			"bufferView":21,
			"componentType":5126,
			"count":447,
			"type":"VEC3"
		},
		{
			"bufferView":22,
			"componentType":5126,
			"count":447,
			"type":"VEC2"
		},
		{
			"bufferView":23,
			"componentType":5123,
			"count":828,
			"type":"SCALAR"
		},
		{
			"bufferView":24,
			"componentType":5126,
			"count":455,
			"max":[
				3.901132583618164,
				1.2687199115753174,
				-3.4314992427825928
			],
			"min":[
				2.3871641159057617,
				0.21436521410942078,
				-4.945467948913574
			],
			"type":"VEC3"
		},
		{
			"bufferView":25,
			"componentType":5126,
			"count":455,
			"type":"VEC3"
		},
		{
			"bufferView":26,
			"componentType":5126,
			"count":455,
			"type":"VEC2"
		},
		{
			"bufferView":27,
			"componentType":5123,
			"count":828,
			"type":"SCALAR"
		},
		{
			"bufferView":28,
			"componentType":5126,
			"count":453,
			"max":[
				4.992283821105957,
				1.2687199115753174,
				2.984239101409912
			],
			"min":[
				3.4783151149749756,
				0.21436521410942078,
				1.4702706336975098
			],
			"type":"VEC3"
		},
		{
			"bufferView":29,
			"componentType":5126,
			"count":453,
			"type":"VEC3"
		},
		{
			"bufferView":30,
			"componentType":5126,
			"count":453,
			"type":"VEC2"
		},
		{
			"bufferView":31,
			"componentType":5123,
			"count":828,
			"type":"SCALAR"
		},
		{
			"bufferView":32,
			"componentType":5126,
			"count":447,
			"max":[
				-3.825336456298828,
				1.2687199115753174,
				1.299203634262085
			],
			"min":[
				-5.3393049240112305,
				0.21436521410942078,
				-0.21476489305496216
			],
			"type":"VEC3"
		},
		{
			"bufferView":33,
			"componentType":5126,
			"count":447,
			"type":"VEC3"
		},
		{
			"bufferView":34,
			"componentType":5126,
			"count":447,
			"type":"VEC2"
		},
		{
			"bufferView":35,
			"componentType":5123,
			"count":828,
			"type":"SCALAR"
		},
		{
			"bufferView":36,
			"componentType":5126,
			"count":456,
			"max":[
				-3.818387269973755,
				1.2687199115753174,
				-0.3944240212440491
			],
			"min":[
				-5.332355976104736,
				0.21436521410942078,
				-1.9083925485610962
			],
			"type":"VEC3"
		},
		{
			"bufferView":37,
			"componentType":5126,
			"count":456,
			"type":"VEC3"
		},
		{
			"bufferView":38,
			"componentType":5126,
			"count":456,
			"type":"VEC2"
		},
		{
			"bufferView":39,
			"componentType":5123,
			"count":828,
			"type":"SCALAR"
		},
		{
			"bufferView":40,
			"componentType":5126,
			"count":453,
			"max":[
				-2.824432849884033,
				1.2687199115753174,
				4.5354156494140625
			],
			"min":[
				-4.3384013175964355,
				0.21436521410942078,
				3.0214474201202393
			],
			"type":"VEC3"
		},
		{
			"bufferView":41,
			"componentType":5126,
			"count":453,
			"type":"VEC3"
		},
		{
			"bufferView":42,
			"componentType":5126,
			"count":453,
			"type":"VEC2"
		},
		{
			"bufferView":43,
			"componentType":5123,
			"count":828,
			"type":"SCALAR"
		},
		{
			"bufferView":44,
			"componentType":5126,
			"count":442,
			"max":[
				-3.4783151149749756,
				1.2687199115753174,
				2.984239101409912
			],
			"min":[
				-4.992283821105957,
				0.21436521410942078,
				1.4702706336975098
			],
			"type":"VEC3"
		},
		{
			"bufferView":45,
			"componentType":5126,
			"count":442,
			"type":"VEC3"
		},
		{
			"bufferView":46,
			"componentType":5126,
			"count":442,
			"type":"VEC2"
		},
		{
			"bufferView":47,
			"componentType":5123,
			"count":828,
			"type":"SCALAR"
		},
		{
			"bufferView":48,
			"componentType":5126,
			"count":446,
			"max":[
				0.7569842338562012,
				1.2687199115753174,
				-4.582430839538574
			],
			"min":[
				-0.7569842338562012,
				0.21436521410942078,
				-6.096399307250977
			],
			"type":"VEC3"
		},
		{
			"bufferView":49,
			"componentType":5126,
			"count":446,
			"type":"VEC3"
		},
		{
			"bufferView":50,
			"componentType":5126,
			"count":446,
			"type":"VEC2"
		},
		{
			"bufferView":51,
			"componentType":5123,
			"count":828,
			"type":"SCALAR"
		},
		{
			"bufferView":52,
			"componentType":5126,
			"count":460,
			"max":[
				4.3384013175964355,
				1.2687199115753174,
				4.5354156494140625
			],
			"min":[
				2.824432849884033,
				0.21436521410942078,
				3.0214474201202393
			],
			"type":"VEC3"
		},
		{
			"bufferView":53,
			"componentType":5126,
			"count":460,
			"type":"VEC3"
		},
		{
			"bufferView":54,
			"componentType":5126,
			"count":460,
			"type":"VEC2"
		},
		{
			"bufferView":55,
			"componentType":5123,
			"count":828,
			"type":"SCALAR"
		},
		{
			"bufferView":56,
			"componentType":5126,
			"count":441,
			"max":[
				-2.3871641159057617,
				1.2687199115753174,
				-3.4314992427825928
			],
			"min":[
				-3.901132583618164,
				0.21436521410942078,
				-4.945467948913574
			],
			"type":"VEC3"
		},
		{
			"bufferView":57,
			"componentType":5126,
			"count":441,
			"type":"VEC3"
		},
		{
			"bufferView":58,
			"componentType":5126,
			"count":441,
			"type":"VEC2"
		},
		{
			"bufferView":59,
			"componentType":5123,
			"count":828,
			"type":"SCALAR"
		},
		{
			"bufferView":60,
			"componentType":5126,
			"count":451,
			"max":[
				-0.9316988587379456,
				1.2687199115753174,
				-4.318145275115967
			],
			"min":[
				-2.445667266845703,
				0.21436521410942078,
				-5.832113742828369
			],
			"type":"VEC3"
		},
		{
			"bufferView":61,
			"componentType":5126,
			"count":451,
			"type":"VEC3"
		},
		{
			"bufferView":62,
			"componentType":5126,
			"count":451,
			"type":"VEC2"
		},
		{
			"bufferView":63,
			"componentType":5123,
			"count":828,
			"type":"SCALAR"
		}
	],
	"bufferViews":[
		{
			"buffer":0,
			"byteLength":10743108,
			"byteOffset":0,
			"target":34962
		},
		{
			"buffer":0,
			"byteLength":10743108,
			"byteOffset":10743108,
			"target":34962
		},
		{
			"buffer":0,
			"byteLength":7162072,
			"byteOffset":21486216,
			"target":34962
		},
		{
			"buffer":0,
			"byteLength":11134668,
			"byteOffset":28648288,
			"target":34963
		},
		{
			"buffer":0,
			"byteLength":5424,
			"byteOffset":39782956,
			"target":34962
		},
		{
			"buffer":0,
			"byteLength":5424,
			"byteOffset":39788380,
			"target":34962
		},
		{
			"buffer":0,
			"byteLength":3616,
			"byteOffset":39793804,
			"target":34962
		},
		{
			"buffer":0,
			"byteLength":1656,
			"byteOffset":39797420,
			"target":34963
		},
		{
			"buffer":0,
			"byteLength":5376,
			"byteOffset":39799076,
			"target":34962
		},
		{
			"buffer":0,
			"byteLength":5376,
			"byteOffset":39804452,
			"target":34962
		},
		{
			"buffer":0,
			"byteLength":3584,
			"byteOffset":39809828,
			"target":34962
		},
		{
			"buffer":0,
			"byteLength":1656,
			"byteOffset":39813412,
			"target":34963
		},
		{
			"buffer":0,
			"byteLength":5412,
			"byteOffset":39815068,
			"target":34962
		},
		{
			"buffer":0,
			"byteLength":5412,
			"byteOffset":39820480,
			"target":34962
		},
		{
			"buffer":0,
			"byteLength":3608,
			"byteOffset":39825892,
			"target":34962
		},
		{
			"buffer":0,
			"byteLength":1656,
			"byteOffset":39829500,
			"target":34963
		},
		{
			"buffer":0,
			"byteLength":5364,
			"byteOffset":39831156,
			"target":34962
		},
		{
			"buffer":0,
			"byteLength":5364,
			"byteOffset":39836520,
			"target":34962
		},
		{
			"buffer":0,
			"byteLength":3576,
			"byteOffset":39841884,
			"target":34962
		},
		{
			"buffer":0,
			"byteLength":1656,
			"byteOffset":39845460,
			"target":34963
		},
		{
			"buffer":0,
			"byteLength":5364,
			"byteOffset":39847116,
			"target":34962
		},
		{
			"buffer":0,
			"byteLength":5364,
			"byteOffset":39852480,
			"target":34962
		},
		{
			"buffer":0,
			"byteLength":3576,
			"byteOffset":39857844,
			"target":34962
		},
		{
			"buffer":0,
			"byteLength":1656,
			"byteOffset":39861420,
			"target":34963
		},
		{
			"buffer":0,
			"byteLength":5460,
			"byteOffset":39863076,
			"target":34962
		},
		{
			"buffer":0,
			"byteLength":5460,
			"byteOffset":39868536,
			"target":34962
		},
		{
			"buffer":0,
			"byteLength":3640,
			"byteOffset":39873996,
			"target":34962
		},
		{
			"buffer":0,
			"byteLength":1656,
			"byteOffset":39877636,
			"target":34963
		},
		{
			"buffer":0,
			"byteLength":5436,
			"byteOffset":39879292,
			"target":34962
		},
		{
			"buffer":0,
			"byteLength":5436,
			"byteOffset":39884728,
			"target":34962
		},
		{
			"buffer":0,
			"byteLength":3624,
			"byteOffset":39890164,
			"target":34962
		},
		{
			"buffer":0,
			"byteLength":1656,
			"byteOffset":39893788,
			"target":34963
		},
		{
			"buffer":0,
			"byteLength":5364,
			"byteOffset":39895444,
			"target":34962
		},
		{
			"buffer":0,
			"byteLength":5364,
			"byteOffset":39900808,
			"target":34962
		},
		{
			"buffer":0,
			"byteLength":3576,
			"byteOffset":39906172,
			"target":34962
		},
		{
			"buffer":0,
			"byteLength":1656,
			"byteOffset":39909748,
			"target":34963
		},
		{
			"buffer":0,
			"byteLength":5472,
			"byteOffset":39911404,
			"target":34962
		},
		{
			"buffer":0,
			"byteLength":5472,
			"byteOffset":39916876,
			"target":34962
		},
		{
			"buffer":0,
			"byteLength":3648,
			"byteOffset":39922348,
			"target":34962
		},
		{
			"buffer":0,
			"byteLength":1656,
			"byteOffset":39925996,
			"target":34963
		},
		{
			"buffer":0,
			"byteLength":5436,
			"byteOffset":39927652,
			"target":34962
		},
		{
			"buffer":0,
			"byteLength":5436,
			"byteOffset":39933088,
			"target":34962
		},
		{
			"buffer":0,
			"byteLength":3624,
			"byteOffset":39938524,
			"target":34962
		},
		{
			"buffer":0,
			"byteLength":1656,
			"byteOffset":39942148,
			"target":34963
		},
		{
			"buffer":0,
			"byteLength":5304,
			"byteOffset":39943804,
			"target":34962
		},
		{
			"buffer":0,
			"byteLength":5304,
			"byteOffset":39949108,
			"target":34962
		},
		{
			"buffer":0,
			"byteLength":3536,
			"byteOffset":39954412,
			"target":34962
		},
		{
			"buffer":0,
			"byteLength":1656,
			"byteOffset":39957948,
			"target":34963
		},
		{
			"buffer":0,
			"byteLength":5352,
			"byteOffset":39959604,
			"target":34962
		},
		{
			"buffer":0,
			"byteLength":5352,
			"byteOffset":39964956,
			"target":34962
		},
		{
			"buffer":0,
			"byteLength":3568,
			"byteOffset":39970308,
			"target":34962
		},
		{
			"buffer":0,
			"byteLength":1656,
			"byteOffset":39973876,
			"target":34963
		},
		{
			"buffer":0,
			"byteLength":5520,
			"byteOffset":39975532,
			"target":34962
		},
		{
			"buffer":0,
			"byteLength":5520,
			"byteOffset":39981052,
			"target":34962
		},
		{
			"buffer":0,
			"byteLength":3680,
			"byteOffset":39986572,
			"target":34962
		},
		{
			"buffer":0,
			"byteLength":1656,
			"byteOffset":39990252,
			"target":34963
		},
		{
			"buffer":0,
			"byteLength":5292,
			"byteOffset":39991908,
			"target":34962
		},
		{
			"buffer":0,
			"byteLength":5292,
			"byteOffset":39997200,
			"target":34962
		},
		{
			"buffer":0,
			"byteLength":3528,
			"byteOffset":40002492,
			"target":34962
		},
		{
			"buffer":0,
			"byteLength":1656,
			"byteOffset":40006020,
			"target":34963
		},
		{
			"buffer":0,
			"byteLength":5412,
			"byteOffset":40007676,
			"target":34962
		},
		{
			"buffer":0,
			"byteLength":5412,
			"byteOffset":40013088,
			"target":34962
		},
		{
			"buffer":0,
			"byteLength":3608,
			"byteOffset":40018500,
			"target":34962
		},
		{
			"buffer":0,
			"byteLength":1656,
			"byteOffset":40022108,
			"target":34963
		}
	],
	"samplers":[
		{
			"magFilter":9729,
			"minFilter":9987
		}
	],
	"buffers":[
		{
			"byteLength":40023764,
			"uri":"demo0.bin"
		}
	]
}
